<svg width="50" height="50" viewBox="0 0 50 50" fill="none" xmlns="http://www.w3.org/2000/svg">
<rect width="50" height="50" rx="25" fill="transparent"/>
<path d="M35.8026 14.09V38.6385C35.8026 39.3925 36.4549 40.0036 37.2598 40.0036H41.9134C42.7183 40.0036 43.3706 39.3925 43.3706 38.6385V7L35.8026 14.09Z" fill="black"/>
<path d="M25.3058 23.2748V38.6333C25.3058 39.3874 25.9581 39.9985 26.763 39.9985H31.4166C32.2215 39.9985 32.8738 39.3874 32.8738 38.6333V16.1848L25.3058 23.2748Z" fill="black"/>
<path d="M20.194 25.355C19.1676 25.355 18.2032 24.9807 17.4772 24.3006L14.2205 21.25V38.633C14.2205 39.3871 14.8728 39.9982 15.6777 39.9982H20.3312C21.1361 39.9982 21.7884 39.3871 21.7884 38.633V25.0278C21.294 25.2398 20.7541 25.355 20.194 25.355Z" fill="black"/>
<path d="M9.80653 18.44L3.50817 24.3406C3.35026 24.4885 3.17911 24.6196 3 24.7377V38.6363C3 39.3903 3.6523 40.0014 4.45722 40.0014H9.11077C9.91568 40.0014 10.568 39.3903 10.568 38.6363V19.1534L9.80653 18.44Z" fill="black"/>
</svg>
