<svg width="50" height="50" viewBox="0 0 50 50" fill="none" xmlns="http://www.w3.org/2000/svg">
<g clip-path="url(#clip0_725_23)">
<path d="M0 0.000244141H49.8758V26.9247L47.4071 30.7821L49.8758 34.2152V49.8761H0V24.4946L1.54295 22.7202L0 21.0229V0.000244141Z" fill="#016FD0"/>
<path d="M9.68213 34.755V26.9246H17.9731L18.8627 28.0842L19.7816 26.9246H49.876V34.215C49.876 34.215 49.0889 34.7472 48.1787 34.755H31.5149L30.5119 33.5207V34.755H27.2255V32.6479C27.2255 32.6479 26.7765 32.9421 25.806 32.9421H24.6873V34.755H19.7113L18.823 33.5705L17.9211 34.755H9.68213Z" fill="white"/>
<path d="M0 21.0226L1.86966 16.6638H5.10303L6.16408 19.1055V16.6638H10.1835L10.8151 18.4286L11.4275 16.6638H29.4703V17.551C29.4703 17.551 30.4188 16.6638 31.9776 16.6638L37.8319 16.6843L38.8746 19.094V16.6638H42.2382L43.164 18.048V16.6638H46.5585V24.4943H43.164L42.2768 23.1056V24.4943H37.3349L36.8379 23.2599H35.5094L35.0205 24.4943H31.669C30.3277 24.4943 29.4703 23.6252 29.4703 23.6252V24.4943H24.4172L23.4143 23.2599V24.4943H4.62403L4.12739 23.2599H2.80307L2.30994 24.4943H0V21.0226Z" fill="white"/>
<path d="M2.53152 17.6292L0.00976562 23.4924H1.65156L2.11686 22.3183H4.82184L5.28472 23.4924H6.96268L4.44333 17.6292H2.53152ZM3.46453 18.9937L4.28904 21.0453H2.6376L3.46453 18.9937Z" fill="#016FD0"/>
<path d="M7.13623 23.4914V17.6282L9.46931 17.6368L10.8263 21.4171L12.1508 17.6282H14.4652V23.4914H12.9994V19.1711L11.4457 23.4914H10.1601L8.60203 19.1711V23.4914H7.13623Z" fill="#016FD0"/>
<path d="M15.4683 23.4914V17.6282H20.2514V18.9397H16.9495V19.9426H20.1743V21.177H16.9495V22.2185H20.2514V23.4914H15.4683Z" fill="#016FD0"/>
<path d="M21.0996 17.6292V23.4924H22.5654V21.4094H23.1826L24.9401 23.4924H26.7314L24.8027 21.3322C25.5942 21.2654 26.4107 20.5861 26.4107 19.5313C26.4107 18.2975 25.4423 17.6292 24.3615 17.6292H21.0996ZM22.5654 18.9407H24.241C24.6429 18.9407 24.9353 19.2551 24.9353 19.5578C24.9353 19.9474 24.5565 20.175 24.2627 20.175H22.5654V18.9407Z" fill="#016FD0"/>
<path d="M28.5059 23.4914H27.0093V17.6282H28.5059V23.4914Z" fill="#016FD0"/>
<path d="M32.0549 23.4914H31.7318C30.1688 23.4914 29.2197 22.2599 29.2197 20.5839C29.2197 18.8664 30.1581 17.6282 32.132 17.6282H33.7521V19.0168H32.0728C31.2715 19.0168 30.7048 19.6422 30.7048 20.5984C30.7048 21.7338 31.3528 22.2107 32.2863 22.2107H32.6721L32.0549 23.4914Z" fill="#016FD0"/>
<path d="M35.2444 17.6292L32.7227 23.4924H34.3644L34.8297 22.3183H37.5347L37.9976 23.4924H39.6756L37.1562 17.6292H35.2444ZM36.1774 18.9937L37.0019 21.0453H35.3505L36.1774 18.9937Z" fill="#016FD0"/>
<path d="M39.8467 23.4914V17.6282H41.7103L44.0898 21.312V17.6282H45.5556V23.4914H43.7523L41.3125 19.7112V23.4914H39.8467Z" fill="#016FD0"/>
<path d="M10.6851 33.7521V27.8889H15.4682V29.2004H12.1663V30.2033H15.3911V31.4377H12.1663V32.4792H15.4682V33.7521H10.6851Z" fill="#016FD0"/>
<path d="M34.1226 33.7521V27.8889H38.9057V29.2004H35.6038V30.2033H38.8131V31.4377H35.6038V32.4792H38.9057V33.7521H34.1226Z" fill="#016FD0"/>
<path d="M15.6536 33.7521L17.9825 30.8567L15.5981 27.8889H17.4449L18.8649 29.7236L20.2897 27.8889H22.0641L19.7111 30.8205L22.0442 33.7521H20.1978L18.8191 31.9464L17.4738 33.7521H15.6536Z" fill="#016FD0"/>
<path d="M22.2183 27.8899V33.7531H23.7226V31.9016H25.2656C26.5711 31.9016 27.5607 31.2089 27.5607 29.862C27.5607 28.7462 26.7846 27.8899 25.456 27.8899H22.2183ZM23.7226 29.2159H25.3476C25.7693 29.2159 26.0708 29.4744 26.0708 29.8909C26.0708 30.2822 25.7709 30.5659 25.3427 30.5659H23.7226V29.2159Z" fill="#016FD0"/>
<path d="M28.1973 27.8889V33.7521H29.6631V31.6691H30.2802L32.0378 33.7521H33.829L31.9003 31.592C32.6919 31.5252 33.5084 30.8458 33.5084 29.7911C33.5084 28.5573 32.54 27.8889 31.4592 27.8889H28.1973ZM29.6631 29.2004H31.3386C31.7406 29.2004 32.0329 29.5148 32.0329 29.8176C32.0329 30.2071 31.6541 30.4348 31.3603 30.4348H29.6631V29.2004Z" fill="#016FD0"/>
<path d="M39.5846 33.7521V32.4792H42.5181C42.9521 32.4792 43.1401 32.2446 43.1401 31.9874C43.1401 31.7409 42.9527 31.4917 42.5181 31.4917H41.1925C40.0402 31.4917 39.3984 30.7897 39.3984 29.7356C39.3984 28.7955 39.9861 27.8889 41.6984 27.8889H44.5529L43.9357 29.2081H41.467C40.995 29.2081 40.8498 29.4558 40.8498 29.6922C40.8498 29.9353 41.0293 30.2033 41.3898 30.2033H42.7785C44.063 30.2033 44.6204 30.932 44.6204 31.8861C44.6204 32.9119 43.9993 33.7521 42.7085 33.7521H39.5846Z" fill="#016FD0"/>
<path d="M44.9644 33.7521V32.4792H47.898C48.332 32.4792 48.52 32.2446 48.52 31.9874C48.52 31.7409 48.3326 31.4917 47.898 31.4917H46.5723C45.4201 31.4917 44.7783 30.7897 44.7783 29.7356C44.7783 28.7955 45.366 27.8889 47.0783 27.8889H49.9327L49.3156 29.2081H46.8468C46.3749 29.2081 46.2297 29.4558 46.2297 29.6922C46.2297 29.9353 46.4092 30.2033 46.7697 30.2033H48.1583C49.4429 30.2033 50.0002 30.932 50.0002 31.8861C50.0002 32.9119 49.3791 33.7521 48.0884 33.7521H44.9644Z" fill="#016FD0"/>
</g>
<defs>
<clipPath id="clip0_725_23">
<rect width="50" height="49.8759" fill="white"/>
</clipPath>
</defs>
</svg>
