<svg width="42" height="49" viewBox="0 0 42 49" fill="none" xmlns="http://www.w3.org/2000/svg">
<path d="M34.4698 25.7012C34.4482 21.7421 36.239 18.7539 39.8637 16.5532C37.8356 13.6513 34.7719 12.0548 30.7265 11.7419C26.8969 11.4399 22.7112 13.975 21.1794 13.975C19.5612 13.975 15.8503 11.8498 12.9376 11.8498C6.91809 11.9469 0.520996 16.6503 0.520996 26.219C0.520996 29.0454 1.0388 31.9652 2.07442 34.9786C3.45524 38.9377 8.43915 48.6466 13.6388 48.4847C16.3573 48.42 18.2775 46.5538 21.8159 46.5538C25.2463 46.5538 27.0263 48.4847 30.0577 48.4847C35.3005 48.4092 39.8097 39.5849 41.1258 35.6151C34.0922 32.3032 34.4698 25.9061 34.4698 25.7012ZM28.364 7.98781C31.309 4.49261 31.0393 1.31024 30.953 0.166748C28.3532 0.317776 25.3434 1.93593 23.6282 3.93165C21.7404 6.06761 20.6292 8.71059 20.8666 11.688C23.6821 11.9037 26.2496 10.4582 28.364 7.98781Z" fill="black"/>
</svg>
