<svg width="38" height="25" viewBox="0 0 38 25" fill="none" xmlns="http://www.w3.org/2000/svg">
<path d="M4.71841 15.959C4.71841 17.3502 5.02363 18.4182 5.42286 19.0643C5.94616 19.9107 6.72661 20.27 7.52231 20.27C8.54846 20.27 9.48732 20.0152 11.2965 17.5129C12.7463 15.5073 14.4539 12.6921 15.603 10.9272L17.5491 7.93707C18.9009 5.8605 20.4656 3.55212 22.2597 1.98741C23.7248 0.710217 25.3043 0.000732422 26.8943 0.000732422C29.5639 0.000732422 32.1067 1.54774 34.0528 4.44917C36.1826 7.62666 37.2164 11.6292 37.2164 15.7594C37.2164 18.2149 36.7325 20.0191 35.9089 21.4444C35.1133 22.8228 33.5625 24.2001 30.9538 24.2001V20.2693C33.1875 20.2693 33.7449 18.2167 33.7449 15.8678C33.7449 12.5204 32.9644 8.80573 31.2451 6.15138C30.0251 4.26863 28.4439 3.11825 26.7043 3.11825C24.8228 3.11825 23.3088 4.53753 21.6072 7.06734C20.7025 8.41169 19.7739 10.0498 18.7311 11.8984L17.5831 13.9319C15.2775 18.0211 14.6933 18.952 13.5403 20.4885C11.5196 23.1793 9.79392 24.1995 7.52231 24.1995C4.82737 24.1995 3.12333 23.0325 2.06788 21.274C1.20639 19.8411 0.783203 17.9608 0.783203 15.8185L4.71841 15.959Z" fill="#0081FB"/>
<path d="M3.88623 4.72588C5.69039 1.94486 8.29407 0 11.2803 0C13.0097 0 14.7293 0.511855 16.5243 1.97783C18.4881 3.58023 20.5812 6.22039 23.1925 10.5698L24.1287 12.1302C26.3891 15.8957 27.6749 17.833 28.4276 18.7465C29.3955 19.9196 30.0734 20.2694 30.9539 20.2694C33.1877 20.2694 33.745 18.2168 33.745 15.8678L37.2166 15.7588C37.2166 18.2143 36.7327 20.0185 35.909 21.4439C35.1135 22.8222 33.5626 24.1995 30.9539 24.1995C29.3321 24.1995 27.8955 23.8473 26.3066 22.3484C25.0858 21.198 23.6573 19.1544 22.5588 17.3173L19.2913 11.8592C17.652 9.11998 16.1475 7.0776 15.2777 6.15263C14.3412 5.15792 13.1376 3.95688 11.2169 3.95688C9.66237 3.95688 8.34214 5.04773 7.2374 6.71637L3.88623 4.72588Z" fill="url(#paint0_linear_733_27)"/>
<path d="M11.2167 3.95688C9.66221 3.95688 8.34198 5.04773 7.23724 6.71637C5.67497 9.0742 4.71917 12.5862 4.71917 15.9589C4.71917 17.3501 5.02439 18.4181 5.42362 19.0642L2.06788 21.2739C1.20639 19.841 0.783203 17.9607 0.783203 15.8183C0.783203 11.9224 1.85254 7.86171 3.88607 4.72588C5.69023 1.94486 8.29391 0 11.2802 0L11.2167 3.95688Z" fill="url(#paint1_linear_733_27)"/>
<defs>
<linearGradient id="paint0_linear_733_27" x1="8.68124" y1="11.4726" x2="33.7673" y2="12.7396" gradientUnits="userSpaceOnUse">
<stop stop-color="#0064E1"/>
<stop offset="0.4" stop-color="#0064E1"/>
<stop offset="0.83" stop-color="#0073EE"/>
<stop offset="1" stop-color="#0082FB"/>
</linearGradient>
<linearGradient id="paint1_linear_733_27" x1="6.03162" y1="17.6111" x2="6.03162" y2="8.36212" gradientUnits="userSpaceOnUse">
<stop stop-color="#0082FB"/>
<stop offset="1" stop-color="#0064E0"/>
</linearGradient>
</defs>
</svg>
