<svg width="50" height="39" viewBox="0 0 50 39" fill="none" xmlns="http://www.w3.org/2000/svg">
<path d="M44.466 31.06L46.0677 35.4418H42.8147L44.466 31.06ZM42.7506 29.3539L39.0595 38.706H41.6659L42.2498 37.0535H46.6179L47.1705 38.706H50L46.2814 29.3527L42.7506 29.3539ZM35.3401 38.7094H37.9845V29.351L35.3397 29.3504L35.3401 38.7094ZM16.9825 29.3504L14.7762 36.7677L12.6628 29.351L9.80957 29.3504L12.828 38.7094H16.6376L19.6804 29.3504H16.9825ZM27.6713 31.3883H28.8079C30.4567 31.3883 31.5231 32.1285 31.5231 34.0496C31.5231 35.9711 30.4567 36.7115 28.8079 36.7115H27.6713V31.3883ZM25.0492 29.3504V38.7094H29.3362C31.6203 38.7094 32.3661 38.3298 33.1726 37.478C33.7422 36.88 34.1107 35.5675 34.1107 34.1328C34.1107 32.8169 33.7989 31.644 33.2552 30.9131C32.2758 29.606 30.8648 29.3504 28.759 29.3504H25.0492ZM0 29.3374V38.7094H2.66674V31.5932L4.73302 31.5938C5.4172 31.5938 5.90491 31.7643 6.23438 32.1163C6.65226 32.5614 6.82289 33.2799 6.82289 34.5941V38.7094H9.40695V33.5313C9.40695 29.8357 7.0514 29.3374 4.74663 29.3374H0ZM20.7933 29.3504L20.7944 38.7094H23.4375V29.3504H20.7933Z" fill="black"/>
<path d="M7.10698 10.7156C7.10698 10.7156 10.5081 5.69755 17.2989 5.17841V3.35787C9.77719 3.96194 3.26367 10.3325 3.26367 10.3325C3.26367 10.3325 6.95282 20.9972 17.2989 21.9736V20.0385C9.70646 19.0834 7.10698 10.7156 7.10698 10.7156ZM17.2989 16.1901V17.9623C11.5607 16.9393 9.96792 10.9744 9.96792 10.9744C9.96792 10.9744 12.7231 7.92223 17.2989 7.42727V9.37189C17.2954 9.37189 17.293 9.37083 17.2901 9.37083C14.8885 9.08262 13.0123 11.3262 13.0123 11.3262C13.0123 11.3262 14.0639 15.1031 17.2989 16.1901ZM17.2989 0V3.35787C17.5197 3.34094 17.7405 3.32658 17.9625 3.31903C26.5139 3.03082 32.0857 10.3325 32.0857 10.3325C32.0857 10.3325 25.6863 18.114 19.0193 18.114C18.4082 18.114 17.8362 18.0573 17.2989 17.9621V20.0385C17.7584 20.0969 18.2347 20.1312 18.7318 20.1312C24.936 20.1312 29.4226 16.9627 33.7671 13.2126C34.4874 13.7895 37.4363 15.1929 38.0425 15.8073C33.9117 19.2656 24.2847 22.0534 18.8269 22.0534C18.3008 22.0534 17.7955 22.0215 17.2989 21.9736V24.8914H40.8805V0H17.2989ZM17.2989 7.42727V5.17841C17.5175 5.16315 17.7377 5.15151 17.9625 5.14441C24.1118 4.95126 28.1462 10.4288 28.1462 10.4288C28.1462 10.4288 23.7887 16.4806 19.1166 16.4806C18.4442 16.4806 17.8415 16.3725 17.2989 16.1901V9.37189C19.6929 9.66116 20.1745 10.7186 21.6138 13.1179L24.8147 10.4188C24.8147 10.4188 22.4781 7.35427 18.5391 7.35427C18.111 7.35412 17.7012 7.38419 17.2989 7.42727Z" fill="#77B900"/>
</svg>
