<svg width="50" height="59" viewBox="0 0 50 59" fill="none" xmlns="http://www.w3.org/2000/svg">
<path d="M44.4569 17.9787L12.8897 52.4244H1.31129C0.50724 52.4244 -0.136004 51.6203 0.0248069 50.8162L7.74373 1.92973C7.90454 0.804055 8.86941 0 9.99508 0H29.614C43.1221 0.482433 46.8208 7.3973 44.4086 18.0108L44.4569 17.9787Z" fill="#002C8A"/>
<path d="M44.9718 14.7947C49.7962 17.3677 50.9218 22.192 49.3137 28.6244C47.2232 38.1123 40.9516 42.1325 31.7853 42.2933L29.2124 42.4542C28.2475 42.4542 27.6043 43.0974 27.4434 44.0623L25.3529 56.7663C25.1921 57.892 24.2272 58.6961 23.1016 58.6961H13.4529C12.6488 58.6961 12.0056 57.892 12.1664 57.0879L15.7042 34.092C15.8651 33.2879 44.9718 14.7947 44.9718 14.7947Z" fill="#009BE1"/>
<path d="M15.5098 35.2175L18.726 14.7946C18.8315 14.3109 19.0935 13.8755 19.4714 13.5557C19.8493 13.2359 20.3221 13.0496 20.8165 13.0256H36.2544C39.953 13.0256 42.6868 13.6689 44.9382 14.7946C44.1341 21.8702 40.7571 33.2878 24.3544 33.6094H17.2787C16.4746 33.6094 15.6706 34.2527 15.5098 35.2175Z" fill="#001F6B"/>
</svg>
