<svg width="50" height="60" viewBox="0 0 50 60" fill="none" xmlns="http://www.w3.org/2000/svg">
<path fill-rule="evenodd" clip-rule="evenodd" d="M1.70459 17.9305L1.91681 42.0179L7.32852 48.703L23.5643 57.2981L43.5135 47.5357L47.6519 37.6672L47.2275 5.72695L32.1594 5.30249L16.4548 7.8492L2.12967 16.1259L1.70459 17.9305Z" fill="#301506"/>
<path d="M24.9502 0.523672C15.4933 0.523672 7.24415 2.35457 0.430664 5.96518V34.8308C0.430664 40.9047 2.71283 45.9837 7.02928 49.5221C11.0371 52.8097 23.4318 58.2274 24.9507 58.8854C26.3911 58.2585 38.9327 52.757 42.8769 49.5221C47.1909 45.9857 49.4737 40.9051 49.4737 34.8308V5.96518C42.6592 2.3541 34.4101 0.523193 24.9493 0.523193L24.9502 0.523672ZM38.9533 6.11285C41.7735 6.14972 44.5426 6.32394 47.2194 6.5727V34.8306C47.2194 40.2609 45.2489 44.6474 41.447 47.779C38.0505 50.5761 27.8085 55.1648 24.9507 56.4245C22.0545 55.1478 11.7869 50.5012 8.45151 47.7802C4.67208 44.7022 2.68268 40.2115 2.68268 34.8318V18.3201C13.5437 8.35977 26.7323 5.95366 38.9524 6.11349L38.9533 6.11285ZM25.5895 19.2708C23.2627 19.2708 21.3853 19.791 19.8396 20.7887V48.591H24.1072V39.609C24.5331 39.7346 25.1513 39.852 26.027 39.852C30.761 39.852 33.4818 35.5846 33.4818 29.3537C33.4818 23.1351 30.6801 19.2708 25.5895 19.2708ZM40.1717 19.2708C37.365 19.3522 34.4299 21.3853 34.4478 24.832C34.455 27.1014 35.0841 28.7986 38.6014 30.8624C40.4784 31.9642 41.2347 32.6902 41.2671 34.029C41.303 35.5173 40.2747 36.4146 38.7098 36.4086C37.3484 36.3978 35.7209 35.6423 34.631 34.672V38.5994C35.9673 39.3961 37.6347 39.9228 39.3192 39.9228C43.5352 39.9228 45.4177 36.9448 45.4991 34.2158C45.5793 31.7285 44.8919 29.8465 41.3268 27.7518C39.7356 26.8186 38.4791 26.2053 38.521 24.6524C38.5629 23.1366 39.8213 22.6041 41.0296 22.6149C42.5203 22.6281 43.9622 23.4536 44.8523 24.3665V20.6578C44.1022 20.0799 42.5141 19.1991 40.1717 19.2708ZM4.86196 19.7027V33.1133C4.86196 37.6344 7.00057 39.9232 11.2213 39.9232C13.833 39.9232 16.0204 39.3187 17.6499 38.2109V19.7028H13.3916V35.7827C12.9274 36.101 12.2389 36.3043 11.3727 36.3043C9.41788 36.3043 9.12578 34.5116 9.12578 33.3022V19.703L4.86196 19.7027ZM25.6183 22.7067C28.0935 22.7067 29.1195 24.6828 29.1195 29.4623C29.1195 34.1257 27.9461 36.3788 25.4912 36.3788C24.9133 36.3788 24.4111 36.2357 24.106 36.1208V23.0155C24.4517 22.8432 25.0392 22.7067 25.6183 22.7067Z" fill="#FAB80A"/>
</svg>
