<svg width="50" height="54" viewBox="0 0 50 54" fill="none" xmlns="http://www.w3.org/2000/svg">
<path d="M25.0516 18.998C26.1406 18.998 27.0369 18.4317 27.1579 17.7006L28.2337 5.54482C28.2337 4.34307 26.8268 3.35669 25.0555 3.35669C23.2869 3.35669 21.8813 4.34307 21.8813 5.54482L22.9545 17.7006C23.0742 18.4317 23.9704 18.998 25.0555 18.998H25.0516Z" fill="#FDBB30"/>
<path d="M18.48 22.7946C19.0265 21.8534 18.984 20.7939 18.4096 20.3246L8.41487 13.3162C7.37625 12.7154 5.81774 13.4398 4.93343 14.9726C4.04645 16.5027 4.20337 18.2136 5.2406 18.8145L16.3058 23.9658C16.9986 24.2224 17.9414 23.7291 18.484 22.788L18.48 22.7946Z" fill="#FDBB30"/>
<path d="M31.6288 22.788C32.174 23.7292 33.1128 24.2224 33.8056 23.9658L44.8721 18.8145C45.9147 18.2136 46.0636 16.5028 45.1833 14.9726C44.295 13.4399 42.7338 12.7154 41.6979 13.3162L31.7032 20.3247C31.1314 20.7939 31.0889 21.8534 31.6328 22.7946L31.6288 22.788Z" fill="#FDBB30"/>
<path d="M25.0516 34.1807C26.1406 34.1807 27.0369 34.743 27.1579 35.4741L28.2337 47.6285C28.2337 48.833 26.8268 49.818 25.0555 49.818C23.2869 49.818 21.8813 48.833 21.8813 47.6285L22.9545 35.4741C23.0742 34.743 23.9704 34.1807 25.0555 34.1807H25.0516Z" fill="#FDBB30"/>
<path d="M31.6288 30.384C32.174 29.4415 33.1128 28.951 33.8056 29.2115L44.8721 34.3575C45.9147 34.9597 46.0636 36.6719 45.1833 38.2047C44.295 39.7321 42.7338 40.4579 41.6979 39.8584L31.7032 32.8566C31.1314 32.382 31.0889 31.3225 31.6328 30.3827L31.6288 30.384Z" fill="#FDBB30"/>
<path d="M18.48 30.3827C19.0265 31.3225 18.984 32.3821 18.4095 32.8566L8.41486 39.8584C7.37629 40.458 5.81778 39.7321 4.93347 38.2047C4.04644 36.6719 4.20337 34.9597 5.24059 34.3575L16.3058 29.2115C16.9986 28.951 17.9414 29.4415 18.484 30.384L18.48 30.3827Z" fill="#FDBB30"/>
</svg>
