<svg width="50" height="57" viewBox="0 0 50 57" fill="none" xmlns="http://www.w3.org/2000/svg">
<path fill-rule="evenodd" clip-rule="evenodd" d="M16.168 56.168H12.3358L11.1679 53.3578H4.81753L3.75914 56.168H0L5.72994 41.9343H9.85407L16.168 56.168ZM7.84676 45.3285L5.76645 50.876H10.146L7.84676 45.3285Z" fill="black"/>
<path fill-rule="evenodd" clip-rule="evenodd" d="M30.0359 41.9343H33.1381V56.168H29.5979V47.2993L25.7293 51.7519H25.1819L21.3497 47.2993V56.168H17.8096V41.9343H20.9118L25.4738 47.2263L30.0359 41.9343Z" fill="black"/>
<path fill-rule="evenodd" clip-rule="evenodd" d="M42.1173 41.9343C47.2998 41.9343 50.0005 45.1825 50.0005 49.0877C50.0005 53.1753 47.4093 56.168 41.7158 56.168H35.8398V41.9343H42.1173ZM39.38 53.5767H41.6793C45.256 53.5767 46.3144 51.168 46.3144 49.0512C46.3144 46.6059 45.0005 44.5256 41.6428 44.5256H39.38V53.5767Z" fill="black"/>
<path fill-rule="evenodd" clip-rule="evenodd" d="M32.3361 9.4891H16.8615L7.33594 0.0364988L41.9347 0V34.5622L32.3361 24.8906V9.4891Z" fill="black"/>
<path fill-rule="evenodd" clip-rule="evenodd" d="M16.9707 25.1826L16.8977 11.241L7.08008 21.022V34.8177H21.2772L30.8758 25.1826H16.9707Z" fill="black"/>
</svg>
