<svg width="48" height="49" viewBox="0 0 48 49" fill="none" xmlns="http://www.w3.org/2000/svg">
<path d="M47.9998 25.0744C47.9998 23.4206 47.8398 21.7135 47.573 20.113H24.4731V29.5557H37.7036C37.1701 32.5966 35.4096 35.264 32.7955 36.9711L40.6911 43.1062C45.3324 38.785 47.9998 32.4899 47.9998 25.0744Z" fill="#4280EF"/>
<path d="M24.4734 48.9748C31.0887 48.9748 36.6369 46.7875 40.6914 43.0531L32.7958 36.9714C30.6085 38.4651 27.7811 39.3187 24.4734 39.3187C18.0716 39.3187 12.6834 34.9975 10.7095 29.2358L2.60059 35.4776C6.76176 43.7466 15.1908 48.9748 24.4734 48.9748Z" fill="#34A353"/>
<path d="M10.7097 29.1822C9.69608 26.1414 9.69608 22.8338 10.7097 19.7929L2.60074 13.4978C-0.866912 20.4331 -0.866912 28.5954 2.60074 35.4774L10.7097 29.1822Z" fill="#F6B704"/>
<path d="M24.4734 9.71035C27.9411 9.657 31.3554 10.9907 33.8628 13.3914L40.8514 6.3494C36.4235 2.18822 30.5552 -0.0524174 24.4734 0.000931084C15.1908 0.000931084 6.76176 5.22908 2.60059 13.4981L10.7095 19.7932C12.6834 13.9782 18.0716 9.71035 24.4734 9.71035Z" fill="#E54335"/>
</svg>
