<svg width="50" height="50" viewBox="0 0 50 50" fill="none" xmlns="http://www.w3.org/2000/svg">
<g clip-path="url(#clip0_725_43)">
<path fill-rule="evenodd" clip-rule="evenodd" d="M45.1321 19.9722C44.0455 20.6645 42.679 21.9641 41.263 23.6086C41.0513 21.749 40.8212 19.8127 40.6793 17.6003C40.3551 12.4287 40.3354 8.11133 41.1917 5.9018C41.6988 4.58433 41.2124 4.32675 40.3354 4.70599C36.6668 6.27326 31.289 10.8391 31.1811 18.1756C31.1445 20.7369 31.7486 23.011 32.7188 24.862C31.4187 25.9969 29.841 25.8244 28.6185 26.0584C28.0188 24.0574 27.4857 21.7234 25.4181 20.589C22.0166 18.069 17.6269 20.596 14.2148 22.8647C14.0278 21.2297 13.8389 19.5226 13.716 17.6003C13.3912 12.4287 13.3697 8.11133 14.2265 5.9018C14.7344 4.58433 14.2485 4.32675 13.3697 4.70599C9.70236 6.27352 4.32406 10.8394 4.21693 18.1756C4.13833 23.6608 6.9686 27.85 10.14 29.3146C10.0455 29.4733 9.94101 29.6277 9.84166 29.7812C7.51644 33.6371 6.89026 35.6778 6.2882 37.9773C5.41586 41.3443 5.68407 44.947 7.84561 45.4025C10.8006 46.0305 13.8413 40.8086 14.5126 35.7761C15.0599 31.6177 14.8353 28.4318 14.4745 25.1214C14.5141 25.0698 14.5694 24.9985 14.6073 24.9533C14.9139 24.5753 15.2054 24.1853 15.4812 23.7843C16.8425 22.4907 18.3846 21.6985 19.8162 21.0567C21.4841 20.6554 23.2184 20.99 24.485 22.0572C25.0842 22.7908 25.9522 23.6564 25.6173 24.5905C24.284 24.2571 23.2184 23.3905 21.7502 23.4566C20.3495 23.3233 18.9495 23.5249 18.2162 24.7917C17.7496 25.7912 18.5485 26.7245 19.2159 27.4578C21.0838 29.5924 26.6845 26.3922 27.018 30.1931C27.9524 29.8585 27.8855 28.5247 28.2857 27.6573C29.9393 27.0093 31.4898 26.7772 33.6601 26.3767C34.6494 27.7219 35.8489 28.7346 37.1041 29.3148C37.0105 29.4736 36.907 29.6279 36.8063 29.7815C34.4798 33.6374 33.8557 35.678 33.2529 37.9776C32.381 41.3445 32.65 44.9473 34.8113 45.4028C37.7645 46.0308 40.8057 40.8089 41.4775 35.7764C42.0256 31.618 41.8002 28.4321 41.4391 25.1217C41.478 25.0701 41.5322 24.9987 41.5719 24.9536C42.9029 23.3028 44.7443 21.6461 45.3767 20.9903C45.8719 20.465 46.0468 19.3883 45.1321 19.9722ZM12.5373 37.9597C12.0494 43.0329 9.72415 43.4879 8.71018 43.1141C7.51618 42.6713 7.19168 39.0004 9.03312 34.3463C9.9117 32.1228 11.0216 30.1335 12.0481 28.5247C12.4673 31.9853 12.7902 35.3206 12.5373 37.9597ZM13.1303 6.55107C12.4584 8.08513 11.1166 10.9818 10.9516 15.8379C10.839 19.028 11.3511 22.922 11.8312 26.7644C11.4299 27.331 11.0395 27.9169 10.651 28.5104C8.39786 26.9401 7.27624 23.6084 7.12008 18.4687C6.87521 10.7745 10.6219 7.00657 12.6844 6.03228C13.1873 5.79286 13.4522 5.82191 13.1303 6.55107ZM25.0842 26.8581C24.1517 27.1909 22.5507 26.9904 21.6177 26.392C21.3508 26.1248 20.6169 25.5904 21.0841 25.0571C22.6171 24.1894 23.9512 25.1238 25.0842 26.392V26.8581ZM39.5014 37.9597C39.014 43.0329 36.6891 43.4879 35.6759 43.1141C34.4798 42.6713 34.1561 39.0004 35.9965 34.3463C36.8774 32.1228 37.985 30.1335 39.013 28.5247C39.4317 31.9853 39.7554 35.3206 39.5014 37.9597ZM40.0936 6.55107C39.4218 8.08513 38.0812 10.9818 37.9152 15.8379C37.8042 19.028 38.315 22.922 38.7961 26.7644C38.3912 27.3386 37.9976 27.9207 37.6156 28.5104C35.3625 26.9401 34.2404 23.6084 34.0845 18.4687C33.8404 10.7745 37.5868 7.00657 39.6493 6.03228C40.1525 5.79286 40.4166 5.82191 40.0936 6.55107Z" fill="#EB1700"/>
</g>
<defs>
<clipPath id="clip0_725_43">
<rect width="50" height="50" fill="white"/>
</clipPath>
</defs>
</svg>
